<?xml version="1.0" encoding="utf-8"?>
<!-- Generator: Adobe Illustrator 13.0.0, SVG Export Plug-In . SVG Version: 6.00 Build 14948)  -->
<!DOCTYPE svg PUBLIC "-//W3C//DTD SVG 1.1//EN" "http://www.w3.org/Graphics/SVG/1.1/DTD/svg11.dtd">
<svg version="1.1" id="レイヤー_1" xmlns="http://www.w3.org/2000/svg" xmlns:xlink="http://www.w3.org/1999/xlink" x="0px"
	 y="0px" width="176.04px" height="22.004px" viewBox="0 0 176.04 22.004" enable-background="new 0 0 176.04 22.004"
	 xml:space="preserve">
<path fill="#FFFFFF" stroke="#E2E3E3" stroke-miterlimit="1" d="M17.04,13.954c0,1.131-0.916,2.047-2.044,2.047H5.084
	c-1.129,0-2.044-0.916-2.044-2.047V4.046C3.04,2.917,3.956,2,5.084,2h9.911c1.129,0,2.044,0.916,2.044,2.045L17.04,13.954
	L17.04,13.954z"/>
<path fill="#EC7063" d="M39.04,13.954c0,1.131-0.916,2.047-2.044,2.047h-9.911c-1.129,0-2.044-0.916-2.044-2.047V4.046
	C25.04,2.917,25.956,2,27.084,2h9.911c1.129,0,2.044,0.916,2.044,2.045L39.04,13.954L39.04,13.954z"/>
<polyline fill="none" stroke="#FFFFFF" stroke-width="2" points="28.296,9.731 31.201,12.055 35.75,7.117 "/>
<path fill="#F1F1F1" stroke="#CBCCCC" stroke-miterlimit="1" d="M61.04,13.954c0,1.131-0.916,2.047-2.044,2.047h-9.912
	c-1.129,0-2.044-0.916-2.044-2.047V4.046C47.04,2.917,47.956,2,49.084,2h9.911c1.129,0,2.044,0.916,2.044,2.045L61.04,13.954
	L61.04,13.954z"/>
<path fill="#D3D3D4" d="M83.04,13.954c0,1.131-0.916,2.047-2.044,2.047h-9.911c-1.129,0-2.044-0.916-2.044-2.047V4.046
	C69.04,2.917,69.956,2,71.084,2h9.911c1.129,0,2.044,0.916,2.044,2.045L83.04,13.954L83.04,13.954z"/>
<polyline fill="none" stroke="#FFFFFF" stroke-width="2" points="72.296,9.731 75.201,12.055 79.75,7.117 "/>
</svg>
